<?xml version="1.0" encoding="UTF-8"?><svg xmlns:svg="http://www.w3.org/2000/svg" xmlns="http://www.w3.org/2000/svg" xmlns:xlink="http://www.w3.org/1999/xlink" version="1.0" ><g transform="translate(50,50)" ><rect x="0" y="0" height="500" width="500" style=" stroke: rgb(255,255,255);  fill: rgb(225,225,225);  stroke-width: 2; " /><line x1="50" y1="0" x2="50" y2="500" style=" stroke: rgb(245,245,245);  stroke-width: 1; " /><line x1="100" y1="0" x2="100" y2="500" style=" stroke: rgb(255,255,255);  stroke-width: 2; " /><line x1="150" y1="0" x2="150" y2="500" style=" stroke: rgb(245,245,245);  stroke-width: 1; " /><line x1="200" y1="0" x2="200" y2="500" style=" stroke: rgb(255,255,255);  stroke-width: 2; " /><line x1="250" y1="0" x2="250" y2="500" style=" stroke: rgb(245,245,245);  stroke-width: 1; " /><line x1="300" y1="0" x2="300" y2="500" style=" stroke: rgb(255,255,255);  stroke-width: 2; " /><line x1="350" y1="0" x2="350" y2="500" style=" stroke: rgb(245,245,245);  stroke-width: 1; " /><line x1="400" y1="0" x2="400" y2="500" style=" stroke: rgb(255,255,255);  stroke-width: 2; " /><line x1="450" y1="0" x2="450" y2="500" style=" stroke: rgb(245,245,245);  stroke-width: 1; " /><line x1="0" y1="50" x2="500" y2="50" style=" stroke: rgb(245,245,245);  stroke-width: 1; " /><line x1="0" y1="100" x2="500" y2="100" style=" stroke: rgb(255,255,255);  stroke-width: 2; " /><line x1="0" y1="150" x2="500" y2="150" style=" stroke: rgb(245,245,245);  stroke-width: 1; " /><line x1="0" y1="200" x2="500" y2="200" style=" stroke: rgb(255,255,255);  stroke-width: 2; " /><line x1="0" y1="250" x2="500" y2="250" style=" stroke: rgb(245,245,245);  stroke-width: 1; " /><line x1="0" y1="300" x2="500" y2="300" style=" stroke: rgb(255,255,255);  stroke-width: 2; " /><line x1="0" y1="350" x2="500" y2="350" style=" stroke: rgb(245,245,245);  stroke-width: 1; " /><line x1="0" y1="400" x2="500" y2="400" style=" stroke: rgb(255,255,255);  stroke-width: 2; " /><line x1="0" y1="450" x2="500" y2="450" style=" stroke: rgb(245,245,245);  stroke-width: 1; " /><text x="0" y="520" style=" text-anchor: middle;  font-size: 12px;  fill: rgb(150,150,150);  font-family: Verdana; " >0.0</text><text x="100" y="520" style=" text-anchor: middle;  font-size: 12px;  fill: rgb(150,150,150);  font-family: Verdana; " >200000.0</text><text x="200" y="520" style=" text-anchor: middle;  font-size: 12px;  fill: rgb(150,150,150);  font-family: Verdana; " >400000.0</text><text x="300" y="520" style=" text-anchor: middle;  font-size: 12px;  fill: rgb(150,150,150);  font-family: Verdana; " >600000.0</text><text x="400" y="520" style=" text-anchor: middle;  font-size: 12px;  fill: rgb(150,150,150);  font-family: Verdana; " >800000.0</text><text x="500" y="520" style=" text-anchor: middle;  font-size: 12px;  fill: rgb(150,150,150);  font-family: Verdana; " >1000000.0</text><text x="0" y="400" style=" text-anchor: end;  font-size: 12px;  fill: rgb(150,150,150);  alignment-baseline: middle;  font-family: Verdana; " >4.0</text><text x="0" y="300" style=" text-anchor: end;  font-size: 12px;  fill: rgb(150,150,150);  alignment-baseline: middle;  font-family: Verdana; " >8.0</text><text x="0" y="200" style=" text-anchor: end;  font-size: 12px;  fill: rgb(150,150,150);  alignment-baseline: middle;  font-family: Verdana; " >12.0</text><text x="0" y="100" style=" text-anchor: end;  font-size: 12px;  fill: rgb(150,150,150);  alignment-baseline: middle;  font-family: Verdana; " >16.0</text><text x="0" y="0" style=" text-anchor: end;  font-size: 12px;  fill: rgb(150,150,150);  alignment-baseline: middle;  font-family: Verdana; " >20.0</text><circle cx="50.0" cy="453.2803649902344" r="3" fill="rgb(0,0,255)" /><circle cx="100.0" cy="431.21175384521484" r="3" fill="rgb(0,0,255)" /><circle cx="150.0" cy="395.9956970214844" r="3" fill="rgb(0,0,255)" /><circle cx="200.0" cy="366.2127227783203" r="3" fill="rgb(0,0,255)" /><circle cx="250.0" cy="317.446044921875" r="3" fill="rgb(0,0,255)" /><circle cx="300.0" cy="291.1540832519531" r="3" fill="rgb(0,0,255)" /><circle cx="350.0" cy="252.5656280517578" r="3" fill="rgb(0,0,255)" /><circle cx="400.0" cy="223.56353759765625" r="3" fill="rgb(0,0,255)" /><circle cx="450.0" cy="184.91900634765625" r="3" fill="rgb(0,0,255)" /><circle cx="500.0" cy="152.53353881835938" r="3" fill="rgb(0,0,255)" /></g></svg>